<?xml version="1.0" encoding="utf-8"?>
<!-- Generator: Adobe Illustrator 21.0.0, SVG Export Plug-In . SVG Version: 6.00 Build 0)  -->
<svg version="1.1" id="Warstwa_1" xmlns="http://www.w3.org/2000/svg" xmlns:xlink="http://www.w3.org/1999/xlink" x="0px" y="0px"
	 viewBox="0 0 366.3 298.8" style="enable-background:new 0 0 366.3 298.8;" xml:space="preserve">
<style type="text/css">
	.st0{clip-path:url(#SVGID_2_);fill:#003953;}
	.st1{clip-path:url(#SVGID_2_);fill-rule:evenodd;clip-rule:evenodd;fill:#00AEEF;}
	.st2{clip-path:url(#SVGID_2_);fill:none;stroke:#FFFFFF;stroke-width:2;stroke-miterlimit:10;}
	.st3{clip-path:url(#SVGID_2_);fill:#FFFFFF;}
</style>
<g>
	<defs>
		<rect id="SVGID_1_" x="-392.3" y="-224.7" width="1150.9" height="867.4"/>
	</defs>
	<clipPath id="SVGID_2_">
		<use xlink:href="#SVGID_1_"  style="overflow:visible;"/>
	</clipPath>
	<path class="st0" d="M304.3,167.6L217.7,34.6c-19.9-34-34.3-11.4-34.3-11.4L124.7,99L83,149.6c0,0-25,29.5-4.1,51
		c20.8,21.5,37.6,6,37.6,6l54.7,17.1l24.4-4.3l60.1-9.5l13.3-28.1L304.3,167.6z"/>
	<path class="st1" d="M165,209.9l13.5-29.1c0,0-12.9-13.1-22.4-19.5c-30.5-20.5-20.7-68.7-20.8-78.2c0,0-0.7,45.9,45.7,60.2
		c48.2,14.9,138.1-5.3,121.3,35.5l-78.1,58.6"/>
	<path class="st2" d="M165,209.9l13.5-29.1c0,0-12.9-13.1-22.4-19.5c-30.5-20.5-20.7-68.7-20.8-78.2c0,0-0.7,45.9,45.7,60.2
		c48.2,14.9,138.1-5.3,121.3,35.5l-78.1,58.6"/>
	<path class="st3" d="M269.6,159.6c-1.3,0.2-2.6,0.4-3.8,0.7l-31.6,18.5c1,0.2,2.1,0.4,3.1,0.6c6,1.4,9.9,5.3,11.5,11.2l33.2-21.4
		C279.6,162,276.2,158.8,269.6,159.6"/>
	<path class="st3" d="M253.4,165c-3.5-4.1-8.9-7.6-15-4.8c-8,3.6-15.6,7.8-23.3,12l0,0c-0.4,0.2-4.7,4.5,3,5c0,0,0,0,0,0
		c1.1,0,2.2,0.1,3.3,0.2c4.5,0.4,9.1,0.7,13.5,1.5L253.4,165z"/>
	<path class="st3" d="M76.7,198c5.2-2.4,44.6-39.7,49.9-41.8c9.8-3.9,19.5-2.9,28.5,2.8c7.5,4.8,15,9.6,22.3,14.7
		c6.1,3.8,23.6,9.5,36.7,10.2c13,0.7,25.1-0.3,25.7,8.3c0,0.3,0,0.6,0,1c0,7.8-6.6,9.3-13.6,9.6c0,0-0.1,0-0.1,0
		c-0.4,0-0.8,0.1-1.2,0.1c-12.7,0.6-52.8,9.2-52.8,9.2s40.6,1,58.9-1.1c3.9-0.4,7.9-2.3,11.4-4.5c5.6-3.5,7.4-9,6.5-15.5
		c-0.1-0.6-0.2-1.1-0.3-1.6l44.6-24.9c2.8-0.3,6.6-0.3,9.6,1.4c3.5,2.7,7,7.7,2.3,15.2c-2.2,2.5-4.8,4.6-7.6,6.5
		c-25.7,17.6-51.7,34.9-77.2,52.7c-12.4,8.6-24.5,8.8-37.5,2.1c-13-6.7-26.3-12.9-39.3-19.9c-8.1-4.4-15.4-4.7-22.6,0.3
		c-0.7,0.6-1.4,1.1-2,1.5c-0.6,0.5-1.2,0.9-1.8,1.4c-6.6,6.2-15.8,25.1-27.4,15.1l0,0L76.7,198z"/>
	<path class="st3" d="M159.5,94.2c0.7-0.3,1.3-0.6,1.9-1l13.7-15.7c-0.6,0-1.2,0.1-1.7,0.1c-3.4,0-6.1-1.8-7.9-5.1l-14,17.7
		C153.8,94.2,156.1,95.7,159.5,94.2"/>
	<path class="st3" d="M167.8,88.8c2.5,2,6,3.3,8.8,0.8c3.7-3.4,7.1-7.1,10.6-10.8l0,0c0.2-0.2,1.8-3.4-2.4-2.6c0,0,0,0,0,0
		c-0.6,0.1-1.2,0.3-1.8,0.4c-2.5,0.4-5,0.9-7.5,1.1L167.8,88.8z"/>
	<path class="st3" d="M244.5,19c0,0-10,8.4-12.5,13.1c-0.3,0.4-0.5,0.7-0.7,1.1c-0.3,0.3-0.6,0.7-0.8,1.2c-3.1,4.1-13,5.3-18.3,3.7
		c-8.5-2.6-10.6-7.1-19.1-9.6c-8.5-2.5-15.9,1.1-21.2,8.1c-10.9,14.6-22.2,28.8-33.3,43.3c-1.2,1.6-2.3,3.2-3,5.1
		c-1.3,5.4,1.6,8,4.1,9.2c2,0.7,4.1,0.2,5.6-0.4l20.2-21.6c-0.2-0.3-0.3-0.6-0.5-1c-1.7-4-1.7-7.7,0.8-10.6c1.5-1.8,3.4-3.5,5.5-4.3
		c9.8-3.7,28.6-7.8,32.6-8.5c0,0-20.7,10.8-27.7,12.8c-0.2,0.1-0.4,0.1-0.6,0.2c0,0,0,0,0,0c-3.9,1.2-7.3,3-5.8,7.9
		c0.1,0.2,0.1,0.4,0.2,0.6c1.9,5.4,8.5,3.1,15.8,1.8c7.4-1.3,18.2-0.1,22.3,1.5c5,2.2,10.1,4.3,15.1,6.2c6.1,2.4,11.7,1.7,16.4-2
		c2.6-2,17.6-30.6,20.1-32.8L244.5,19z"/>
	<path class="st0" d="M22.4,264.3c0,10.1,3.2,13.3,9.9,13.3c1,0,2.3-0.1,3.1-0.1v-5.7h-6.1l0.7-11.9h18.6v26.5
		c-6.4,2.3-12.4,3.1-17,3.1c-13.4,0-23.3-6.4-23.3-25.2C8.4,245.5,19,239,32,239c4.7,0,9.9,0.6,14.5,1.7l-2.2,11.7
		c-3.8-0.9-7.3-1.6-11.2-1.6C26.1,250.9,22.4,254.4,22.4,264.3"/>
	<path class="st0" d="M72.1,253.7c11.1,0,17.8,6,17.8,17.9c0,11.9-6.7,17.9-17.8,17.9c-11.1,0-17.8-5.9-17.8-17.9
		C54.3,259.7,61,253.7,72.1,253.7 M83.7,239l-9.2,11.7h-9.8l5.9-11.7H83.7z M72.1,279c3.2,0,5.7-1.6,5.7-7.4s-2.4-7.4-5.7-7.4
		c-3.3,0-5.7,1.6-5.7,7.4S68.8,279,72.1,279"/>
	<path class="st0" d="M119.3,267.1c-5.4-1.7-7.3-2.4-11.9,3.9v17.7H95.5v-34l11.9-0.7v5.4c5-5.8,8-6.6,13.3-5L119.3,267.1z"/>
	<path class="st0" d="M140.9,266.7c0-1.7-0.9-2.5-3.1-2.5c-2.2,0-5.8,0.6-11.6,2.2l-1.7-10.1c5-1.5,11.5-2.5,16-2.5
		c7.8,0,12.4,3.1,12.4,12.4v22.7h-8.9l-1.3-2.4c-3.9,2.4-6.9,3.1-9.8,3.1c-5.4,0-10.1-3.4-10.1-10.1c0-7.3,4.7-10.1,18.2-11.5V266.7
		z M140.9,279.8v-4.4c-5.2,0.7-6.8,1-6.8,3.1c0,1.5,1,2.1,2.4,2.1C137.7,280.6,139.2,280.2,140.9,279.8"/>
	<path class="st0" d="M218,264.5c0,16.6-9.1,25-25.7,25c-5.2,0-10.3-0.6-16.1-2v-47.7h19C209.3,239.7,218,247.4,218,264.5
		 M189.5,251.6v25.6c1.5,0.3,2.9,0.3,4.1,0.3c7,0,10.4-4.7,10.4-12.9c0-9.1-3.4-13.1-8.9-13.1H189.5z"/>
	<path class="st0" d="M240.7,253.7c11.1,0,17.8,6,17.8,17.9c0,11.9-6.7,17.9-17.8,17.9c-11.1,0-17.8-5.9-17.8-17.9
		C222.9,259.7,229.6,253.7,240.7,253.7 M240.7,279c3.2,0,5.7-1.6,5.7-7.4s-2.4-7.4-5.7-7.4c-3.3,0-5.7,1.6-5.7,7.4
		S237.4,279,240.7,279"/>
	<path class="st0" d="M264.1,236.5l11.9-0.7v21.6c3.6-2.4,7.2-3.8,10.3-3.8c7.1,0,12.4,6.2,12.4,17.9c0,13.3-7.7,17.9-18.1,17.9
		c-5,0-10.5-1-16.5-2.8V236.5z M280.7,279c3.2,0,5.8-1.9,5.8-7.6c0-5.1-1.9-6.3-4.4-6.3c-1.6,0-3.6,0.6-6.1,1.3v11.9
		C277.6,278.6,279.3,279,280.7,279"/>
	<path class="st0" d="M328.1,267.1c-5.4-1.7-7.3-2.4-11.9,3.9v17.7h-11.9v-34l11.9-0.7v5.4c5-5.8,8-6.6,13.3-5L328.1,267.1z"/>
	<path class="st0" d="M349.6,266.7c0-1.7-0.9-2.5-3.1-2.5c-2.2,0-5.8,0.6-11.6,2.2l-1.7-10.1c5-1.5,11.5-2.5,16-2.5
		c7.8,0,12.4,3.1,12.4,12.4v22.7h-8.9l-1.3-2.4c-3.9,2.4-6.9,3.1-9.8,3.1c-5.4,0-10.1-3.4-10.1-10.1c0-7.3,4.7-10.1,18.2-11.5V266.7
		z M349.6,279.8v-4.4c-5.2,0.7-6.8,1-6.8,3.1c0,1.5,1,2.1,2.4,2.1C346.4,280.6,348,280.2,349.6,279.8"/>
</g>
</svg>
