<svg xmlns="http://www.w3.org/2000/svg" viewBox="0 0 2103.51 659.07"><defs><style>.cls-1{fill:#fff;}</style></defs><title>Zasób 1</title><g id="Warstwa_2" data-name="Warstwa 2"><g id="Gory"><polygon class="cls-1" points="0 657.59 136.73 331.02 273.47 657.59 0 657.59"/><polygon class="cls-1" points="284.79 657.59 436.04 101.16 587.28 657.59 284.79 657.59"/><polygon class="cls-1" points="491.58 657.59 784.84 413.16 1078.09 657.59 491.58 657.59"/><polygon class="cls-1" points="1039.4 657.59 1227.83 363.28 1416.27 657.59 1039.4 657.59"/><polygon class="cls-1" points="2103.51 657.59 1609.4 657.59 1856.46 271.71 2103.51 657.59"/><line class="cls-1" x1="1245.54" y1="659.07" x2="1238.94" y2="657.59"/><path class="cls-1" d="M1245.54,659.07"/><polygon class="cls-1" points="1693.8 657.59 1302.43 657.59 1485.09 0 1657.48 543.14 1693.58 656.87 1693.8 657.59"/><polygon class="cls-1" points="911.52 657.59 1029.2 448.53 1146.89 657.59 911.52 657.59"/><line class="cls-1" x1="1741.87" y1="657.59" x2="1729.17" y2="657.59"/><path class="cls-1" d="M1741.87,657.59"/><polygon class="cls-1" points="67.12 657.59 254.64 413.16 442.17 657.59 67.12 657.59"/></g></g></svg>